<?xml version="1.0" encoding="utf-8"?>
<!DOCTYPE svg PUBLIC "-//W3C//DTD SVG 1.1//EN" "http://www.w3.org/Graphics/SVG/1.1/DTD/svg11.dtd">
<svg version="1.1" id="Layer_1" xmlns="http://www.w3.org/2000/svg" xmlns:xlink="http://www.w3.org/1999/xlink" x="0px" y="0px"
         width="200px" height="200px" viewBox="0 0 200 200" enable-background="new 0 0 200 200" xml:space="preserve">
<circle fill="#AABBCC" cx="100" cy="100" r="100"/>
<path fill="#CCBBAA" d="M156.938,102.012c-0.442-0.023-1.218,0.238-2.206,0.635c-0.633-17.015-8.692-17.537-10.701-16.676
        c-2.09,0.895-8.209,11.343-15.374,12.238c-7.164,0.896-14.478-4.478-21.044-6.269c-6.567-1.791-11.94-0.896-11.94-0.896
        s19.104-10.896,20.298-24.328c1.194-13.434-8.06-26.567-22.984-27.762c-14.926-1.193-26.567,14.18-28.06,16.717
        c-1.493,1.642-13.582-2.239-15.225-2.239c-1.642,0-4.67-0.433-6.119,3.433c-3.135,8.358,6.119,19.403,12.09,21.194
        c4.145,1.243,12.91-0.003,13.135,6.418c0.447,12.836-17.463,19.254-20,35.971c-0.576,3.794-0.15,25.82,23.88,34.775
        s51.193,0.344,63.235-6.871c5.72-3.427,17.063-15.367,22.259-26.228C165.854,106.087,159.049,102.122,156.938,102.012z"/>
</svg>
